<svg width="60" height="61" viewBox="0 0 60 61" fill="none" xmlns="http://www.w3.org/2000/svg">
<circle cx="30" cy="30.5" r="30" fill="#008AA7"/>
<g clip-path="url(#clip0_6_5130)">
<path d="M24.1307 37.636C23.9472 37.6122 23.7624 37.6006 23.5773 37.6013L23.448 37.6026H23.4547H22.9933V38.9213H23.508C23.7623 38.9395 24.0178 38.9124 24.2627 38.8413L24.2467 38.8453C24.3622 38.8005 24.4623 38.7232 24.5347 38.6226L24.536 38.6213C24.6131 38.5032 24.6504 38.3635 24.6425 38.2227C24.6346 38.0819 24.5818 37.9473 24.492 37.8386L24.4933 37.84C24.4026 37.7294 24.2736 37.6571 24.132 37.6373H24.1293L24.1307 37.636ZM27.12 39.6293H28.384L27.752 37.904L27.12 39.6293Z" fill="#E0F7FE"/>
<path d="M41.2359 14.1H19.1679C17.8599 14.1 16.7999 15.16 16.7999 16.468V43.7333C16.7999 45.0413 17.8599 46.1013 19.1679 46.1013H41.2373C42.5453 46.1013 43.6053 45.0413 43.6053 43.7333V16.468C43.6053 15.16 42.5453 14.1 41.2373 14.1H41.2359V14.1ZM30.6759 17.7266C30.7719 17.7373 30.8799 17.7373 30.9759 17.748C31.2986 17.78 31.5853 17.908 31.8133 18.104L31.8106 18.1026C32.3079 18.5413 32.7199 19.0626 33.0279 19.648L33.0426 19.6773C33.2013 19.96 33.3599 20.2986 33.4946 20.6493L33.5133 20.7053C32.6853 20.8173 31.7026 20.8946 30.7079 20.9186H30.6759V17.7266ZM33.9013 28.9333C32.8415 28.7804 31.7732 28.6949 30.7026 28.6773H30.6759V26.096H34.3026C34.2613 27.1253 34.1159 28.1 33.8759 29.036L33.8973 28.9386L33.9013 28.9333ZM30.6759 29.8213C31.68 29.8375 32.6822 29.9136 33.6773 30.0493L33.5466 30.0346C33.3995 30.4381 33.223 30.8303 33.0186 31.208L33.0426 31.16C32.7363 31.7554 32.3206 32.2878 31.8173 32.7293L31.8106 32.7346C31.5772 32.9349 31.2875 33.0579 30.9813 33.0866H30.9746C30.876 33.0997 30.7767 33.1068 30.6773 33.108H30.6746L30.6759 29.8213ZM33.8586 31.6C34.0813 31.2013 34.2946 30.7306 34.4706 30.2426L34.4919 30.1746C34.9853 30.26 35.4879 30.368 35.9853 30.4946H35.9959C35.8893 30.624 35.7706 30.7413 35.6639 30.8493C35.0019 31.5156 34.2227 32.0539 33.3653 32.4373L33.3173 32.4573C33.5093 32.2093 33.6879 31.9306 33.8413 31.6373L33.8559 31.6066L33.8586 31.6ZM37.8853 26.0933C37.7779 27.323 37.3784 28.5092 36.7199 29.5533L36.7386 29.5213L36.6093 29.4893C36.0209 29.3341 35.4277 29.1981 34.8306 29.0813C35.0599 28.2 35.2119 27.176 35.2559 26.124L35.2573 26.0946L37.8853 26.0933ZM30.6759 22.0546C31.7939 22.032 32.9095 21.9443 34.0173 21.792L33.8693 21.8093C34.1079 22.6773 34.2666 23.6826 34.3079 24.7186L34.3093 24.7453H30.6826L30.6759 22.0546ZM34.8013 21.6586C35.4013 21.552 35.9746 21.4226 36.5479 21.2613L36.6759 21.2293C37.3319 22.2266 37.7639 23.424 37.8746 24.7146L37.8759 24.7426H35.2399C35.2044 23.6691 35.0488 22.6029 34.7759 21.564L34.7986 21.664L34.8013 21.6586ZM35.9146 20.244C35.4319 20.3626 34.9399 20.4693 34.4573 20.5546C34.2876 20.0793 34.0821 19.6175 33.8426 19.1733L33.8693 19.2266C33.7003 18.918 33.5124 18.6201 33.3066 18.3346L33.3239 18.36C34.1978 18.7475 34.9932 19.2921 35.6706 19.9666C35.7453 20.0626 35.8319 20.1493 35.9173 20.2453L35.9146 20.244ZM28.6079 18.1013C28.8333 17.9066 29.1213 17.7786 29.4373 17.748H29.4439C29.5319 17.736 29.6359 17.728 29.7413 17.7266H29.7439V20.908C28.7509 20.8918 27.7598 20.8157 26.7759 20.68L26.9039 20.6946C27.0626 20.284 27.2213 19.9453 27.3986 19.6186L27.3746 19.6666C27.6933 19.0573 28.0973 18.54 28.5799 18.108L28.5853 18.104L28.6079 18.1013ZM25.5973 29.0826C24.9866 29.2 24.3866 29.3293 23.8186 29.4906L23.6893 29.5226C23.0351 28.4996 22.6418 27.3317 22.5439 26.1213L22.5426 26.0946H25.1786C25.2079 27.1706 25.3573 28.1986 25.6159 29.1826L25.5946 29.088L25.5973 29.0826ZM24.4293 30.5066C24.9222 30.3786 25.4205 30.2718 25.9226 30.1866C26.1226 30.7453 26.3359 31.2146 26.5813 31.6653L26.5546 31.612C26.7413 31.9493 26.9213 32.2333 27.1173 32.504L27.0999 32.4786C26.226 32.0911 25.4307 31.5465 24.7533 30.872C24.6466 30.7533 24.5399 30.636 24.4333 30.5066H24.4293ZM26.8719 30.0346C27.7253 29.9106 28.7199 29.8333 29.7293 29.8213H29.7426V33.1093C29.5024 33.0956 29.2631 33.0707 29.0253 33.0346C28.8768 32.9442 28.7355 32.8426 28.6026 32.7306L28.6079 32.7346C28.1118 32.2976 27.6994 31.7739 27.3906 31.1893L27.3759 31.16C27.1907 30.819 27.029 30.4657 26.8919 30.1026L26.8706 30.04L26.8719 30.0346ZM29.7439 28.6733C28.5853 28.696 27.4693 28.788 26.3759 28.948L26.5199 28.9306C26.2774 28.0111 26.1375 27.0676 26.1026 26.1173L26.1013 26.092H29.7439V28.6733ZM26.5519 21.8066C27.6046 21.9618 28.6666 22.0442 29.7306 22.0533H29.7439V24.7426H26.1013C26.1506 23.68 26.3106 22.6773 26.5706 21.716L26.5479 21.8146L26.5519 21.8066ZM27.0973 18.3573C26.9186 18.604 26.7373 18.8866 26.5733 19.1813L26.5506 19.2253C26.3268 19.6309 26.1364 20.0541 25.9813 20.4906L25.9626 20.5533C25.4737 20.4651 24.9877 20.3615 24.5053 20.2426H24.4946C24.578 20.1476 24.6638 20.0547 24.7519 19.964C25.417 19.3067 26.1935 18.7726 27.0453 18.3866L27.0946 18.3666L27.0973 18.3573ZM23.8733 21.26C24.4413 21.4106 25.0199 21.5386 25.6199 21.6573C25.3574 22.6571 25.2067 23.6829 25.1706 24.716L25.1693 24.7426H22.5333C22.6407 23.4778 23.0629 22.26 23.7613 21.2L23.7439 21.228L23.8733 21.26ZM25.0733 39.42C24.927 39.5217 24.7641 39.597 24.5919 39.6426L24.5813 39.6453C24.3007 39.6893 24.0172 39.7112 23.7333 39.7106L23.5999 39.7093H23.6066H22.9959V41.4666H22.0533V36.8066H23.5639C23.9471 36.7881 24.3311 36.815 24.7079 36.8866L24.6773 36.8813C24.9455 36.9563 25.182 37.1169 25.3506 37.3386L25.3533 37.3413C25.5213 37.5986 25.6213 37.9133 25.6213 38.252C25.6213 38.5133 25.5626 38.76 25.4559 38.98L25.4599 38.9693C25.3752 39.1526 25.2425 39.3097 25.0759 39.424L25.0719 39.4266L25.0733 39.42ZM29.1013 41.4653L28.6933 40.4053H26.8266L26.4399 41.4653H25.4439L27.2573 36.8053H28.2533L30.1173 41.4653H29.1013ZM33.9546 40.8546C33.8057 41.089 33.5877 41.2712 33.3306 41.376L33.3213 41.3786C33.0466 41.488 32.7293 41.552 32.3959 41.552L32.2986 41.5506H32.3026C31.8126 41.5811 31.3279 41.4354 30.9359 41.14L30.9413 41.144C30.6088 40.8357 30.4061 40.4123 30.3746 39.96V39.9546L31.2853 39.8693C31.3173 40.136 31.4373 40.3693 31.6173 40.5426C31.8199 40.6799 32.0584 40.7548 32.3031 40.7582C32.5479 40.7615 32.7883 40.693 32.9946 40.5613L32.9893 40.564C33.0597 40.5115 33.1174 40.4438 33.1582 40.3661C33.1991 40.2883 33.222 40.2024 33.2253 40.1146V40.1026C33.2254 40.0046 33.1909 39.9097 33.1279 39.8346V39.836C33.0324 39.7445 32.9176 39.6757 32.7919 39.6346L32.7853 39.6333C32.6786 39.5906 32.4213 39.5266 32.0386 39.4293C31.6524 39.3571 31.2876 39.1979 30.9719 38.964L30.9786 38.9693C30.845 38.8564 30.7376 38.7157 30.664 38.557C30.5903 38.3984 30.552 38.2256 30.5519 38.0506V38.0173C30.5519 37.772 30.6279 37.5453 30.7586 37.3586L30.7559 37.3626C30.8999 37.156 31.0959 36.9933 31.3253 36.8946L31.3333 36.892C31.5879 36.7893 31.8826 36.7306 32.1919 36.7306L32.2573 36.732H32.2546C32.7282 36.694 33.1991 36.8332 33.5759 37.1226L33.5706 37.1186C33.7153 37.2434 33.8315 37.3979 33.9111 37.5717C33.9907 37.7454 34.0319 37.9342 34.0319 38.1253V38.148V38.1466L33.0893 38.1893C33.0672 37.993 32.976 37.8111 32.8319 37.676C32.6763 37.5686 32.4916 37.5114 32.3026 37.512L32.2293 37.5146H32.2319C32.0039 37.4989 31.7772 37.56 31.5879 37.688L31.5919 37.6853C31.5458 37.7183 31.5081 37.7617 31.4819 37.8119C31.4558 37.8622 31.4418 37.918 31.4413 37.9746V37.9786C31.4413 38.0906 31.4959 38.1906 31.5799 38.2533H31.5813C31.8319 38.4013 32.1239 38.5106 32.4346 38.5613L32.4493 38.5626C32.8373 38.6466 33.1773 38.7613 33.4986 38.908L33.4666 38.8946C33.6786 39.008 33.8519 39.168 33.9773 39.3613L33.9799 39.3666C34.1013 39.5726 34.1649 39.8076 34.1639 40.0466L34.1626 40.108V40.1053V40.1413C34.1626 40.4106 34.0826 40.6613 33.9439 40.8693L33.9466 40.864L33.9546 40.8546ZM38.2933 40.8546C38.1444 41.089 37.9263 41.2712 37.6693 41.376L37.6599 41.3786C37.3853 41.488 37.0679 41.552 36.7346 41.552L36.6373 41.5506H36.6413C36.1513 41.5811 35.6666 41.4354 35.2746 41.14L35.2799 41.144C34.9474 40.8357 34.7448 40.4123 34.7133 39.96V39.9546L35.6239 39.8693C35.6559 40.136 35.7759 40.3693 35.9559 40.5426C36.1586 40.6799 36.397 40.7548 36.6418 40.7582C36.8866 40.7615 37.1269 40.693 37.3333 40.5613L37.3279 40.564C37.3983 40.5115 37.4561 40.4438 37.4969 40.3661C37.5377 40.2883 37.5606 40.2024 37.5639 40.1146V40.1026C37.5641 40.0046 37.5296 39.9097 37.4666 39.8346V39.836C37.3711 39.7445 37.2563 39.6757 37.1306 39.6346L37.1239 39.6333C37.0173 39.5906 36.7599 39.5266 36.3773 39.4293C35.991 39.3571 35.6263 39.1979 35.3106 38.964L35.3173 38.9693C35.1837 38.8564 35.0763 38.7157 35.0026 38.557C34.9289 38.3984 34.8907 38.2256 34.8906 38.0506V38.0173C34.8906 37.772 34.9666 37.5453 35.0973 37.3586L35.0946 37.3626C35.2366 37.1562 35.4339 36.994 35.6639 36.8946L35.6719 36.892C35.9266 36.7893 36.2226 36.7306 36.5306 36.7306L36.5959 36.732H36.5933C37.0669 36.694 37.5378 36.8332 37.9146 37.1226L37.9093 37.1186C38.054 37.2434 38.1701 37.3979 38.2497 37.5717C38.3293 37.7454 38.3706 37.9342 38.3706 38.1253V38.148V38.1466L37.4279 38.1893C37.4059 37.993 37.3147 37.8111 37.1706 37.676C37.015 37.5686 36.8303 37.5114 36.6413 37.512L36.5679 37.5146H36.5706C36.3426 37.4989 36.1159 37.56 35.9266 37.688L35.9306 37.6853C35.8845 37.7183 35.8468 37.7617 35.8206 37.8119C35.7944 37.8622 35.7805 37.918 35.7799 37.9746V37.9786C35.7799 38.0906 35.8346 38.1906 35.9186 38.2533H35.9199C36.1693 38.4013 36.4613 38.5093 36.7719 38.5613L36.7866 38.564C37.1746 38.648 37.5146 38.7626 37.8359 38.9093L37.8039 38.896C38.0159 39.0093 38.1893 39.1693 38.3146 39.3626L38.3173 39.368C38.4386 39.574 38.5022 39.8089 38.5013 40.048L38.4999 40.1093V40.1066L38.5026 40.1853C38.5031 40.4312 38.4261 40.671 38.2826 40.8706L38.2853 40.8666L38.2933 40.8546Z" fill="#E0F7FE"/>
</g>
<defs>
<clipPath id="clip0_6_5130">
<rect width="26.672" height="32" fill="white" transform="translate(16.8 14.1)"/>
</clipPath>
</defs>
</svg>
