<svg width="60" height="61" viewBox="0 0 60 61" fill="none" xmlns="http://www.w3.org/2000/svg">
<circle cx="30" cy="30.5" r="30" fill="#008AA7"/>
<path d="M25.1525 40.2825V49.96H21.04V21.26C21.04 18.7225 21.7925 16.7275 23.28 15.24C24.75 13.7525 26.7975 13 29.3175 13C31.75 13 33.6225 13.595 35.0225 14.75C36.405 15.94 37.0875 17.585 37.0875 19.6675C37.0875 21.1025 36.6325 22.45 35.7225 23.6925C34.8125 24.935 33.64 25.7925 32.1875 26.265V26.335C34.375 26.685 36.0725 27.4725 37.2275 28.75C38.3825 29.9925 38.96 31.585 38.96 33.545C38.96 35.855 38.155 37.745 36.5625 39.1975C34.9525 40.65 32.8525 41.3675 30.2275 41.3675C28.3725 41.3675 26.675 41 25.1525 40.2825V40.2825ZM27.76 28.3125V24.9525C29.2825 24.76 30.525 24.2 31.5225 23.255C32.5025 22.2925 32.9925 21.225 32.9925 20C32.9925 17.585 31.75 16.36 29.3 16.36C27.97 16.36 26.9375 16.78 26.22 17.6375C25.5025 18.495 25.1525 19.685 25.1525 21.2425V36.625C26.745 37.5525 28.3025 38.0075 29.8075 38.0075C31.2775 38.0075 32.4325 37.6225 33.255 36.87C34.0775 36.1 34.48 35.015 34.48 33.6325C34.48 30.5 32.24 28.75 27.76 28.3125V28.3125Z" fill="#E0F7FE"/>
</svg>
